<?xml version="1.0" encoding="UTF-8" standalone="no"?>
<!-- Created with Inkscape (http://www.inkscape.org/) -->

<svg
   width="512"
   height="512"
   viewBox="0 0 512 512"
   version="1.1"
   id="svg1"
   xml:space="preserve"
   inkscape:version="1.4.2 (ebf0e940d0, 2025-05-08)"
   sodipodi:docname="newicon.svg"
   xmlns:inkscape="http://www.inkscape.org/namespaces/inkscape"
   xmlns:sodipodi="http://sodipodi.sourceforge.net/DTD/sodipodi-0.dtd"
   xmlns="http://www.w3.org/2000/svg"
   xmlns:svg="http://www.w3.org/2000/svg"><sodipodi:namedview
     id="namedview1"
     pagecolor="#505050"
     bordercolor="#eeeeee"
     borderopacity="1"
     inkscape:showpageshadow="0"
     inkscape:pageopacity="0"
     inkscape:pagecheckerboard="0"
     inkscape:deskcolor="#505050"
     inkscape:document-units="px"
     inkscape:zoom="0.70703125"
     inkscape:cx="287.11602"
     inkscape:cy="447.64641"
     inkscape:window-width="1258"
     inkscape:window-height="828"
     inkscape:window-x="0"
     inkscape:window-y="0"
     inkscape:window-maximized="1"
     inkscape:current-layer="layer1" /><defs
     id="defs1" /><g
     inkscape:label="Layer 1"
     inkscape:groupmode="layer"
     id="layer1"><rect
       style="fill:#272736;fill-opacity:1;stroke:#606070;stroke-width:12;stroke-dasharray:none;stroke-opacity:1;stroke-dashoffset:0;paint-order:normal"
       id="rect169829"
       width="500.08789"
       height="500.08789"
       x="5.9560547"
       y="5.9560547"
       ry="99.267479"
       rx="99.267479" /><path
       style="display:inline;fill:#ffffeb;fill-opacity:1;stroke-width:1.07828"
       d="m 221.49013,413.45092 v -2.15676 H 210.7059 199.92172 v -2.15691 -2.15685 h -8.62762 -8.62741 v -2.15691 -2.15684 h -8.62742 -8.62751 v -2.15683 -2.15691 h -6.47051 -6.47067 v -2.15685 -2.15694 h -4.31365 -4.31384 v -2.15682 -2.15682 h -6.47051 -6.47058 v -2.15693 -2.15683 h -4.31375 -4.31376 v -2.15694 -2.15671 h -2.15682 -2.15693 v -2.15692 -2.15692 h -4.31377 -4.31366 v -2.15685 -2.15694 h -2.15683 -2.15687 v -2.15657 -2.15692 h -2.15687 -2.15687 v -2.15686 -2.15691 h -2.156856 -2.156843 v -2.15692 -2.15672 h -2.156869 -2.156869 v -2.15694 -2.15683 h -2.156866 -2.156869 v -2.15692 -2.15682 h -2.156872 -2.156838 v -2.15683 -2.15694 h -2.156864 -2.156866 v -2.15682 -2.15693 h -2.156867 -2.156869 v -2.15684 -2.15682 H 72.666669 70.5098 v -4.31377 -4.31367 h -2.156857 -2.156868 v -15.09816 -15.098 h -2.156868 -2.156846 v -21.5687 -21.56846 h 2.156846 2.156868 v -4.31383 -4.31366 h -2.156868 -2.156846 v -6.47057 -6.4706 h -2.15687 -2.156867 v -4.31376 -4.31375 h -2.156858 -2.156867 v -4.31376 -4.31367 h -2.156856 -2.156867 v -4.31375 -4.31365 h -2.156867 -2.15686 v -4.31384 -4.31366 H 42.47059 40.313738 V 189.13726 178.3529 H 38.156868 36 V 150.31388 122.2745 h 2.156868 2.15687 v -2.15682 -2.15684 h 2.156852 2.156858 v -2.15692 -2.15685 H 57.568623 70.5098 v 2.15685 2.15692 h 10.784324 10.784309 v 2.15684 2.15682 h 8.627437 8.62744 v 2.15692 2.15685 h 6.47059 6.47059 v 2.15693 2.15683 h 4.31376 4.31375 v 2.15682 2.15692 h 8.62743 8.6275 v 2.15683 2.15694 h 4.31365 4.31375 v 2.15673 2.15691 h 4.31367 4.31376 v 2.15692 2.15685 h 2.15693 2.15682 v 2.15693 2.15657 h 4.31376 4.31377 v 2.15692 2.15686 h 2.15683 2.15682 v 2.15692 2.15692 h 2.15692 2.15683 v 2.15673 2.15694 h 4.31366 4.31383 v -2.15694 -2.15673 h 12.94106 12.94114 v -2.15692 -2.15692 h 43.13729 43.13737 v -2.15686 -2.15692 h 2.15692 2.15657 v -2.15657 -2.15693 h 2.15694 2.15685 v -2.15685 -2.15692 h 4.31384 4.31365 v -2.15691 -2.15673 h 4.31376 4.31366 v -2.15694 -2.15683 h 6.47068 6.47058 v -2.15692 -2.15682 h 4.31376 4.31367 v -2.15683 -2.15693 h 4.31376 4.31366 v -2.15685 -2.15692 h 4.31385 4.31363 v -2.15682 -2.15684 h 6.47068 6.4705 v -2.15692 -2.15685 h 4.31378 4.31374 v -2.15691 -2.15682 h 6.47061 6.47055 v -2.15687 -2.15686 h 8.6275 8.62729 v -2.15686 -2.15685 h 8.6274 8.62751 v -2.156866 -2.156869 h 12.94119 12.94126 v 2.156869 2.156866 h 2.15685 2.1568 v 2.15685 2.15686 H 473.8431 476 v 36.66666 36.66663 h -2.1569 -2.15687 v 12.94126 12.94109 h -2.1568 -2.15685 v 17.25491 17.25504 h -2.1569 -2.15692 v 28.03903 28.03925 h -2.15676 -2.15691 v 6.47068 6.47058 h -2.15685 -2.15692 v 6.47051 6.47068 h -2.15683 -2.15682 v 6.47056 6.47059 h -2.15692 -2.15684 v 4.31377 4.31366 h -2.15693 -2.15685 v 4.31375 4.31377 h -2.15681 -2.15692 v 2.15682 2.15692 h -2.15683 -2.15695 v 2.15683 2.15694 h -2.15672 -2.15691 v 2.15672 2.15692 h -2.15692 -2.15685 v 2.15691 2.15686 h -2.15694 -2.15656 v 2.15692 2.15657 h -4.31379 -4.31383 v 2.15694 2.15686 h -4.31367 -4.31374 v 2.15692 2.15692 h -2.15681 -2.15684 v 2.15671 2.15694 h -4.31377 -4.31374 v 2.15683 2.15693 h -4.31378 -4.31375 v 2.15682 2.15682 h -4.31367 -4.31376 v 2.15694 2.15685 h -4.31363 -4.31385 v 2.15691 2.15683 h -8.62742 -8.62743 v 2.15684 2.15691 h -8.62749 -8.62743 v 2.15685 2.15691 h -15.0981 -15.09784 v 2.15676 2.15691 h -38.82361 -38.82364 z m 69.01974,-21.56862 v -2.15682 h 15.09806 15.09798 v -2.15693 -2.15683 h 8.62741 8.62743 v -2.15694 -2.15671 h 8.62749 8.62743 v -2.15692 -2.15692 h 4.31376 4.31366 v -2.15685 -2.15694 h 4.31385 4.31363 v -2.15657 -2.15692 h 4.31376 4.31367 v -2.15686 -2.15691 h 4.31375 4.31378 v -2.15692 -2.15672 h 2.15682 2.15692 v -2.15694 -2.15683 h 4.31377 4.31365 v -2.15692 -2.15682 h 4.31374 4.31367 v -2.15683 -2.15694 h 2.15692 2.15691 v -2.15682 -2.15693 h 2.15686 2.15693 v -4.31366 -4.31377 h 2.15656 2.15694 v -4.31367 -4.31383 h 2.15685 2.15692 v -6.47049 -6.4707 h 2.15691 2.15672 v -6.47056 -6.47058 h 2.15695 2.15683 v -6.4706 -6.47059 h 2.15692 2.15681 V 266.78423 247.3726 h -2.15681 -2.15692 v -4.31375 -4.31365 h -2.15683 -2.15695 v -4.31377 -4.31376 h -2.15672 -2.15691 v -4.31375 -4.31376 h -2.15692 -2.15685 v -2.15675 -2.15692 h -2.15694 -2.15656 v -2.15691 -2.15684 h -4.31379 -4.31383 v -2.15681 -2.15684 h -4.31367 -4.31374 v -2.15693 -2.15691 h -4.31365 -4.31377 v -2.15685 -2.15681 h -6.47058 -6.47069 v -2.15685 -2.15691 h -8.62743 -8.62748 v -2.15691 -2.15676 h -4.31366 -4.31376 v -2.1569 -2.15685 h -8.62743 -8.62749 v -2.15693 -2.15683 h -12.94119 -12.94128 v -2.15683 -2.15692 H 271.098 230.11766 v 2.15692 2.15683 h -12.94127 -12.94117 v 2.15683 2.15693 h -8.62729 -8.62749 v 2.15685 2.1569 h -8.6274 -8.62753 v 2.15676 2.15691 h -6.47059 -6.47059 v 2.15691 2.15685 h -6.47056 -6.47068 v 2.15681 2.15685 h -4.31366 -4.31376 v 2.15691 2.15693 h -4.31367 -4.31375 v 2.15684 2.15681 h -2.15693 -2.15683 v 2.15684 2.15691 h -2.15682 -2.15693 v 2.15692 2.15675 h -2.15684 -2.15693 v 2.15692 2.15684 h -2.15685 -2.15681 v 2.15693 2.15682 h -2.15683 -2.15687 v 2.15683 2.15693 h -2.15687 -2.15686 v 2.15684 2.15693 H 98.549013 96.39217 v 4.31365 4.31375 h -2.156868 -2.15687 v 2.15695 2.15671 h -2.156867 -2.156867 v 6.47069 6.47043 h -2.156873 -2.156838 v 12.94117 12.94127 h 2.156838 2.156873 v 15.09801 15.0981 h 2.156867 2.156867 v 4.31365 4.31383 h 2.15687 2.156868 v 2.15675 2.15692 h 2.156843 2.156857 v 2.15683 2.15694 h 2.15687 2.15687 v 2.15682 2.15684 h 2.15687 2.15683 v 2.15693 2.15682 h 2.15681 2.15685 v 2.15694 2.15683 h 2.15693 2.15684 v 2.15682 2.15692 h 4.31375 4.31376 v 2.15683 2.15694 h 2.15684 2.15691 v 2.15672 2.15692 h 4.31367 4.31376 v 2.15691 2.15686 H 146 h 6.47058 v 2.15692 2.15657 h 4.31375 4.31367 v 2.15694 2.15685 h 6.47069 6.47058 v 2.15692 2.15692 h 8.62742 8.62741 v 2.15671 2.15694 h 8.62762 8.62727 v 2.15683 2.15693 h 10.78433 10.78434 v 2.15682 2.15682 h 30.19611 30.1961 z m -69.01974,-38.82345 v -2.15682 h -4.31374 -4.31376 v -2.15683 -2.15694 h -2.15673 -2.15691 v -2.15682 -2.15693 h -2.15692 -2.15685 v -2.15683 -2.15682 h -2.15693 -2.15657 v -4.31377 -4.31367 h -2.15693 -2.15686 v -6.47068 -6.47057 h -2.15691 -2.15692 v -6.47057 -6.47067 h 2.15692 2.15691 v -2.15676 -2.15691 h 36.66656 36.66676 v 2.15691 2.15676 h 2.15675 2.15692 v 2.15691 2.1569 h 2.15683 2.15694 v 12.94119 12.94115 h -2.15694 -2.15683 v 4.31377 4.31366 h -2.15692 -2.15675 v 2.15693 2.15682 h -2.15692 -2.15691 v 2.15694 2.15683 h -2.15685 -2.1568 v 2.15682 2.15692 H 240.902 221.49013 Z m 73.33348,-64.70594 v -2.15685 h -2.15692 -2.15682 v -6.47058 -6.47069 h 2.15682 2.15692 v -8.62741 -8.62729 h 2.15683 2.15694 v -10.78432 -10.78433 h 2.15672 2.15692 v -6.47059 -6.47068 h 2.15691 2.15686 v -2.15675 -2.15692 h 6.47043 6.47069 v 2.15692 2.15675 h 2.15671 2.15694 v 10.78434 10.78435 h -2.15694 -2.15671 v 10.78433 10.78419 h -2.15692 -2.15692 v 8.62742 8.6275 h -2.15685 -2.15694 v 2.15685 2.15692 h -2.15657 -2.15692 v 2.15685 2.15691 h -6.47069 -6.47049 z M 186.98044,271.09806 v -2.15691 h -2.15683 -2.15692 v -10.7842 -10.78435 h 2.15692 2.15683 v -10.78433 -10.78435 h 2.15695 2.15671 v -2.15684 -2.15692 h 2.15692 2.15691 v -2.15675 -2.15692 h 6.47036 6.4707 v 2.15692 2.15675 h 2.15691 2.15673 v 6.47069 6.47058 h -2.15673 -2.15691 v 10.78434 10.78432 h -2.15692 -2.15685 v 6.47036 6.47071 h -2.15693 -2.15657 v 2.15691 2.15672 h -6.4707 -6.47058 z M 83.450987,223.64708 v -2.15692 h 2.156838 2.156873 v -2.15675 -2.15692 h 2.156869 2.156866 v -2.15691 -2.15684 h 2.156869 2.156869 v -2.15681 -2.15684 h 2.156843 2.156856 v -2.15693 -2.15691 h 2.15687 2.15687 v -2.15685 -2.15681 h 2.15687 2.15683 v -2.15685 -2.15691 h 2.15681 2.15685 v -2.15691 -2.15676 h 2.15693 2.15684 v -2.1569 -2.15685 h 4.31375 4.31376 v -2.15693 -2.15683 h 4.31375 4.31367 v -2.15683 -2.15692 h 6.47057 6.47069 v -2.15684 -2.15692 h 6.47049 6.47058 v -2.15685 -2.15682 h -2.15675 -2.15692 v -2.15692 -2.15682 h -4.31375 -4.31365 v -2.15694 -2.15673 h -4.31384 -4.31366 v -2.15691 -2.15692 h -8.62743 -8.62751 v -2.15686 -2.15692 h -4.31375 -4.31377 v -2.15657 -2.15693 h -6.47049 -6.4706 v -2.15686 -2.15691 h -8.627447 -8.627445 v -2.15691 -2.15673 H 72.666668 61.88236 v -2.15694 -2.15683 h -2.156869 -2.156868 v 17.25468 17.25502 h 2.156868 2.15687 v 10.78435 10.78434 h 2.156846 2.156868 v 4.31367 4.31376 h 2.156868 2.156857 v 4.31366 4.31384 h 2.156868 2.156853 v 4.31365 4.31375 h 2.15687 2.156867 v 4.31367 4.31376 h 2.156866 2.156863 z M 445.80391,202.0784 v -6.47057 h 2.15684 2.15692 v -12.94118 -12.94118 h 2.15682 2.15683 v -25.88229 -25.88234 h -2.15683 -2.15682 v 2.15684 2.15682 h -8.62754 -8.62751 v 2.15692 2.15685 h -8.6274 -8.62729 v 2.15693 2.15683 h -6.47055 -6.47069 v 2.15682 2.15692 h -4.31365 -4.31377 v 2.15683 2.15694 h -6.47058 -6.47069 v 2.15673 2.15691 h -4.31367 -4.31376 v 2.15691 2.15686 h -4.31363 -4.31385 v 2.15693 2.15657 h -4.31366 -4.31376 v 2.15692 2.15686 h -6.47058 -6.4706 v 2.15692 2.15691 h 2.15684 2.15691 v 2.15673 2.15694 h 8.62743 8.62742 v 2.15682 2.15693 h 4.31385 4.31363 v 2.15682 2.15685 h 8.62743 8.62753 v 2.15692 2.15684 h 6.47057 6.47059 v 2.15692 2.15683 h 4.31374 4.31367 v 2.15683 2.15693 h 4.31383 4.31379 v 2.15685 2.1569 h 4.3135 4.31377 v 2.15676 2.15691 h 2.15691 2.15672 v 2.15691 2.15685 h 2.15695 2.15683 v 2.15681 2.15685 h 2.15692 2.15681 v 2.15691 2.15693 h 2.15685 2.15693 z"
       id="path169829" /></g></svg>
